<svg width="36" height="36" viewBox="0 0 36 36" fill="none" xmlns="http://www.w3.org/2000/svg">
<rect width="36" height="36" fill="#FAFAFA"/>
<path d="M12.0784 12.7173C12.0784 16.5967 14.9906 17.6001 18.0474 18.4595C20.8448 19.2642 22.3707 20.5557 22.3707 22.8555C22.3707 25.1553 20.4958 27.0777 18.0723 27.0777C15.5042 27.0777 13.7739 25.4136 13.6343 22.6816L11.5 22.6816C11.5598 26.4717 14.2975 29 18.0723 29C21.6477 29 24.5 26.2432 24.5 22.7661C24.5 19.895 22.9442 17.5107 18.3316 16.3335C15.3048 15.5586 14.2077 14.436 14.2077 12.6279C14.2077 10.5615 15.8782 8.92233 18.0723 8.92233C20.0619 8.92233 21.8471 10.5864 21.8471 12.772L23.9814 12.772C23.9814 9.49853 21.3884 7 18.0723 7C14.7562 7 12.0735 9.35448 12.0735 12.7173L12.0784 12.7173Z" fill="black"/>
</svg>
